<mxfile host="65bd71144e">
    <diagram id="vUVDIGcgVSN1QwOj0Q1G" name="Page-1">
        <mxGraphModel dx="4381" dy="945" grid="0" gridSize="10" guides="1" tooltips="1" connect="1" arrows="1" fold="1" page="0" pageScale="1" pageWidth="850" pageHeight="1100" background="none" math="0" shadow="0">
            <root>
                <mxCell id="0"/>
                <mxCell id="1" parent="0"/>
                <mxCell id="13" style="edgeStyle=none;html=1;dashed=1;entryX=0;entryY=0;entryDx=140;entryDy=50;entryPerimeter=0;exitX=0.004;exitY=0.068;exitDx=0;exitDy=0;endArrow=open;endFill=0;exitPerimeter=0;" edge="1" parent="1" source="2" target="15">
                    <mxGeometry relative="1" as="geometry">
                        <mxPoint x="-1165" y="546" as="targetPoint"/>
                    </mxGeometry>
                </mxCell>
                <mxCell id="2" value="Synch" style="swimlane;fontStyle=3;align=center;verticalAlign=top;childLayout=stackLayout;horizontal=1;startSize=26;horizontalStack=0;resizeParent=1;resizeParentMax=0;resizeLast=0;collapsible=1;marginBottom=0;" parent="1" vertex="1">
                    <mxGeometry x="-1440" y="313" width="250" height="212" as="geometry"/>
                </mxCell>
                <mxCell id="3" value="+ xADCSemaphore: SemaphoreHandle_t" style="text;strokeColor=none;fillColor=none;align=left;verticalAlign=top;spacingLeft=4;spacingRight=4;overflow=hidden;rotatable=0;points=[[0,0.5],[1,0.5]];portConstraint=eastwest;" parent="2" vertex="1">
                    <mxGeometry y="26" width="250" height="24" as="geometry"/>
                </mxCell>
                <mxCell id="8" value="+ xResetSemaphore: SemaphoreHandle_t" style="text;strokeColor=none;fillColor=none;align=left;verticalAlign=top;spacingLeft=4;spacingRight=4;overflow=hidden;rotatable=0;points=[[0,0.5],[1,0.5]];portConstraint=eastwest;" vertex="1" parent="2">
                    <mxGeometry y="50" width="250" height="26" as="geometry"/>
                </mxCell>
                <mxCell id="9" value="+ xPromptSemaphore: SemaphoreHandle_t" style="text;strokeColor=none;fillColor=none;align=left;verticalAlign=top;spacingLeft=4;spacingRight=4;overflow=hidden;rotatable=0;points=[[0,0.5],[1,0.5]];portConstraint=eastwest;" vertex="1" parent="2">
                    <mxGeometry y="76" width="250" height="26" as="geometry"/>
                </mxCell>
                <mxCell id="10" value="+ DeviceStateMutex: SemaphoreHandle_t" style="text;strokeColor=none;fillColor=none;align=left;verticalAlign=top;spacingLeft=4;spacingRight=4;overflow=hidden;rotatable=0;points=[[0,0.5],[1,0.5]];portConstraint=eastwest;" vertex="1" parent="2">
                    <mxGeometry y="102" width="250" height="26" as="geometry"/>
                </mxCell>
                <mxCell id="11" value="+ accl_q: QueueHandle_t" style="text;strokeColor=none;fillColor=none;align=left;verticalAlign=top;spacingLeft=4;spacingRight=4;overflow=hidden;rotatable=0;points=[[0,0.5],[1,0.5]];portConstraint=eastwest;" vertex="1" parent="2">
                    <mxGeometry y="128" width="250" height="26" as="geometry"/>
                </mxCell>
                <mxCell id="12" value="+ xMoveTimer: TimerHandle_t" style="text;strokeColor=none;fillColor=none;align=left;verticalAlign=top;spacingLeft=4;spacingRight=4;overflow=hidden;rotatable=0;points=[[0,0.5],[1,0.5]];portConstraint=eastwest;" vertex="1" parent="2">
                    <mxGeometry y="154" width="250" height="26" as="geometry"/>
                </mxCell>
                <mxCell id="4" value="" style="line;strokeWidth=1;fillColor=none;align=left;verticalAlign=middle;spacingTop=-1;spacingLeft=3;spacingRight=3;rotatable=0;labelPosition=right;points=[];portConstraint=eastwest;strokeColor=inherit;" parent="2" vertex="1">
                    <mxGeometry y="180" width="250" height="8" as="geometry"/>
                </mxCell>
                <mxCell id="5" value="+ createSemaphores()" style="text;strokeColor=none;fillColor=none;align=left;verticalAlign=top;spacingLeft=4;spacingRight=4;overflow=hidden;rotatable=0;points=[[0,0.5],[1,0.5]];portConstraint=eastwest;" parent="2" vertex="1">
                    <mxGeometry y="188" width="250" height="24" as="geometry"/>
                </mxCell>
                <mxCell id="15" value="FreeRTOS" style="shape=folder;fontStyle=1;tabWidth=110;tabHeight=30;tabPosition=left;html=1;boundedLbl=1;labelInHeader=1;container=1;collapsible=0;" vertex="1" parent="1">
                    <mxGeometry x="-1640" y="277" width="140" height="70" as="geometry"/>
                </mxCell>
                <mxCell id="16" value="" style="html=1;strokeColor=none;resizeWidth=1;resizeHeight=1;fillColor=none;part=1;connectable=0;allowArrows=0;deletable=0;" vertex="1" parent="15">
                    <mxGeometry width="140" height="49" relative="1" as="geometry">
                        <mxPoint y="30" as="offset"/>
                    </mxGeometry>
                </mxCell>
                <mxCell id="94" style="edgeStyle=none;sketch=0;html=1;endArrow=open;endFill=0;dashed=1;exitX=0.002;exitY=0.068;exitDx=0;exitDy=0;exitPerimeter=0;entryX=1;entryY=0.5;entryDx=0;entryDy=0;" edge="1" parent="1" source="82" target="5">
                    <mxGeometry relative="1" as="geometry">
                        <mxPoint x="-1170" y="550" as="targetPoint"/>
                    </mxGeometry>
                </mxCell>
                <mxCell id="82" value="&lt;&lt;StepCounterMain&gt;&gt;" style="swimlane;fontStyle=1;align=center;verticalAlign=top;childLayout=stackLayout;horizontal=1;startSize=26;horizontalStack=0;resizeParent=1;resizeParentMax=0;resizeLast=0;collapsible=1;marginBottom=0;" vertex="1" parent="1">
                    <mxGeometry x="-1120" y="498" width="250" height="216" as="geometry"/>
                </mxCell>
                <mxCell id="92" value="+ deviceState: deviceStateInfo_t" style="text;strokeColor=none;fillColor=none;align=left;verticalAlign=top;spacingLeft=4;spacingRight=4;overflow=hidden;rotatable=0;points=[[0,0.5],[1,0.5]];portConstraint=eastwest;rounded=0;" vertex="1" parent="82">
                    <mxGeometry y="26" width="250" height="26" as="geometry"/>
                </mxCell>
                <mxCell id="89" value="" style="line;strokeWidth=1;fillColor=none;align=left;verticalAlign=middle;spacingTop=-1;spacingLeft=3;spacingRight=3;rotatable=0;labelPosition=right;points=[];portConstraint=eastwest;strokeColor=inherit;" vertex="1" parent="82">
                    <mxGeometry y="52" width="250" height="8" as="geometry"/>
                </mxCell>
                <mxCell id="91" value="- flash_message(char*): void" style="text;strokeColor=none;fillColor=none;align=left;verticalAlign=top;spacingLeft=4;spacingRight=4;overflow=hidden;rotatable=0;points=[[0,0.5],[1,0.5]];portConstraint=eastwest;rounded=0;" vertex="1" parent="82">
                    <mxGeometry y="60" width="250" height="26" as="geometry"/>
                </mxCell>
                <mxCell id="81" value="- vTimerCallback(TimerHandle_t): void" style="text;strokeColor=none;fillColor=none;align=left;verticalAlign=top;spacingLeft=4;spacingRight=4;overflow=hidden;rotatable=0;points=[[0,0.5],[1,0.5]];portConstraint=eastwest;rounded=0;" vertex="1" parent="82">
                    <mxGeometry y="86" width="250" height="26" as="geometry"/>
                </mxCell>
                <mxCell id="93" value="- init_clock(): void" style="text;strokeColor=none;fillColor=none;align=left;verticalAlign=top;spacingLeft=4;spacingRight=4;overflow=hidden;rotatable=0;points=[[0,0.5],[1,0.5]];portConstraint=eastwest;rounded=0;" vertex="1" parent="82">
                    <mxGeometry y="112" width="250" height="26" as="geometry"/>
                </mxCell>
                <mxCell id="95" value="- init_timer(): void&#10;" style="text;strokeColor=none;fillColor=none;align=left;verticalAlign=top;spacingLeft=4;spacingRight=4;overflow=hidden;rotatable=0;points=[[0,0.5],[1,0.5]];portConstraint=eastwest;rounded=0;" vertex="1" parent="82">
                    <mxGeometry y="138" width="250" height="26" as="geometry"/>
                </mxCell>
                <mxCell id="96" value="- init_LED(): void" style="text;strokeColor=none;fillColor=none;align=left;verticalAlign=top;spacingLeft=4;spacingRight=4;overflow=hidden;rotatable=0;points=[[0,0.5],[1,0.5]];portConstraint=eastwest;rounded=0;" vertex="1" parent="82">
                    <mxGeometry y="164" width="250" height="26" as="geometry"/>
                </mxCell>
                <mxCell id="97" value="- initDevice(): void" style="text;strokeColor=none;fillColor=none;align=left;verticalAlign=top;spacingLeft=4;spacingRight=4;overflow=hidden;rotatable=0;points=[[0,0.5],[1,0.5]];portConstraint=eastwest;rounded=0;" vertex="1" parent="82">
                    <mxGeometry y="190" width="250" height="26" as="geometry"/>
                </mxCell>
                <mxCell id="142" style="edgeStyle=none;sketch=0;html=1;entryX=1;entryY=0.5;entryDx=0;entryDy=0;endArrow=open;endFill=0;exitX=0;exitY=0.5;exitDx=0;exitDy=0;" edge="1" parent="1" source="250" target="91">
                    <mxGeometry relative="1" as="geometry">
                        <Array as="points">
                            <mxPoint x="-830" y="888"/>
                            <mxPoint x="-830" y="570"/>
                        </Array>
                    </mxGeometry>
                </mxCell>
                <mxCell id="253" style="edgeStyle=none;sketch=0;html=1;entryX=1;entryY=0.5;entryDx=0;entryDy=0;endArrow=open;endFill=0;" edge="1" parent="1" source="99" target="250">
                    <mxGeometry relative="1" as="geometry"/>
                </mxCell>
                <mxCell id="99" value="«task»&lt;br&gt;&lt;b&gt;CheckToReset&lt;/b&gt;" style="html=1;rounded=0;fillColor=none;" vertex="1" parent="1">
                    <mxGeometry x="-385" y="863" width="110" height="50" as="geometry"/>
                </mxCell>
                <mxCell id="192" style="edgeStyle=none;sketch=0;html=1;entryX=1;entryY=0.5;entryDx=0;entryDy=0;endArrow=open;endFill=0;exitX=0;exitY=0.5;exitDx=0;exitDy=0;" edge="1" parent="1" source="254" target="91">
                    <mxGeometry relative="1" as="geometry">
                        <Array as="points">
                            <mxPoint x="-820" y="634"/>
                            <mxPoint x="-820" y="571"/>
                        </Array>
                    </mxGeometry>
                </mxCell>
                <mxCell id="255" style="edgeStyle=none;sketch=0;html=1;entryX=1;entryY=0.5;entryDx=0;entryDy=0;endArrow=open;endFill=0;exitX=0.5;exitY=0;exitDx=0;exitDy=0;" edge="1" parent="1" source="100" target="254">
                    <mxGeometry relative="1" as="geometry">
                        <mxPoint x="-390" y="785" as="sourcePoint"/>
                        <Array as="points">
                            <mxPoint x="-330" y="740"/>
                            <mxPoint x="-520" y="740"/>
                            <mxPoint x="-520" y="634"/>
                        </Array>
                    </mxGeometry>
                </mxCell>
                <mxCell id="100" value="«task»&lt;br&gt;&lt;b&gt;Blink&lt;/b&gt;" style="html=1;rounded=0;fillColor=none;" vertex="1" parent="1">
                    <mxGeometry x="-385" y="760" width="110" height="50" as="geometry"/>
                </mxCell>
                <mxCell id="208" style="edgeStyle=none;sketch=0;html=1;entryX=0;entryY=0.5;entryDx=0;entryDy=0;endArrow=none;endFill=0;exitX=1;exitY=0.5;exitDx=0;exitDy=0;" edge="1" parent="1" source="101" target="204">
                    <mxGeometry relative="1" as="geometry">
                        <Array as="points">
                            <mxPoint x="-150" y="385"/>
                            <mxPoint x="-150" y="173"/>
                        </Array>
                    </mxGeometry>
                </mxCell>
                <mxCell id="248" value="xDeviceStateMutex" style="edgeLabel;html=1;align=center;verticalAlign=middle;resizable=0;points=[];" vertex="1" connectable="0" parent="208">
                    <mxGeometry x="-0.8268" y="1" relative="1" as="geometry">
                        <mxPoint x="24" y="1" as="offset"/>
                    </mxGeometry>
                </mxCell>
                <mxCell id="242" style="edgeStyle=none;sketch=0;html=1;entryX=1;entryY=0.5;entryDx=0;entryDy=0;endArrow=open;endFill=0;exitX=0;exitY=0.5;exitDx=0;exitDy=0;" edge="1" parent="1" source="101" target="240">
                    <mxGeometry relative="1" as="geometry">
                        <Array as="points">
                            <mxPoint x="-495" y="385"/>
                            <mxPoint x="-495" y="537"/>
                        </Array>
                    </mxGeometry>
                </mxCell>
                <mxCell id="259" style="edgeStyle=none;sketch=0;html=1;entryX=1;entryY=0.5;entryDx=0;entryDy=0;endArrow=open;endFill=0;exitX=0;exitY=0.5;exitDx=0;exitDy=0;" edge="1" parent="1" source="219" target="258">
                    <mxGeometry relative="1" as="geometry">
                        <mxPoint x="-266" y="335" as="sourcePoint"/>
                        <Array as="points">
                            <mxPoint x="-120" y="675"/>
                            <mxPoint x="-120" y="1005"/>
                        </Array>
                    </mxGeometry>
                </mxCell>
                <mxCell id="101" value="«task»&lt;br&gt;&lt;b&gt;WriteToDisplay&lt;/b&gt;" style="html=1;rounded=0;fillColor=none;" vertex="1" parent="1">
                    <mxGeometry x="-385" y="360" width="110" height="50" as="geometry"/>
                </mxCell>
                <mxCell id="237" style="edgeStyle=none;sketch=0;html=1;entryX=0;entryY=0.5;entryDx=0;entryDy=0;endArrow=none;endFill=0;exitX=1;exitY=0.5;exitDx=0;exitDy=0;" edge="1" parent="1" source="102" target="236">
                    <mxGeometry relative="1" as="geometry"/>
                </mxCell>
                <mxCell id="238" value="xADCSemaphore" style="edgeLabel;html=1;align=center;verticalAlign=middle;resizable=0;points=[];" vertex="1" connectable="0" parent="237">
                    <mxGeometry x="-0.1476" y="1" relative="1" as="geometry">
                        <mxPoint x="-24" y="1" as="offset"/>
                    </mxGeometry>
                </mxCell>
                <mxCell id="243" style="edgeStyle=none;sketch=0;html=1;entryX=1;entryY=0.5;entryDx=0;entryDy=0;endArrow=open;endFill=0;exitX=0;exitY=0.5;exitDx=0;exitDy=0;" edge="1" parent="1" source="102" target="240">
                    <mxGeometry relative="1" as="geometry">
                        <Array as="points">
                            <mxPoint x="-495" y="487"/>
                            <mxPoint x="-495" y="537"/>
                        </Array>
                    </mxGeometry>
                </mxCell>
                <mxCell id="102" value="«task»&lt;br&gt;&lt;b&gt;UpdateNewGoal&lt;/b&gt;" style="html=1;rounded=0;fillColor=none;" vertex="1" parent="1">
                    <mxGeometry x="-385" y="462" width="110" height="50" as="geometry"/>
                </mxCell>
                <mxCell id="221" style="edgeStyle=none;sketch=0;html=1;endArrow=none;endFill=0;entryX=0;entryY=0.5;entryDx=0;entryDy=0;exitX=1;exitY=0.5;exitDx=0;exitDy=0;" edge="1" parent="1" source="106" target="219">
                    <mxGeometry relative="1" as="geometry">
                        <mxPoint x="-300" y="1390" as="targetPoint"/>
                        <Array as="points">
                            <mxPoint x="-150" y="587"/>
                            <mxPoint x="-150" y="675"/>
                        </Array>
                    </mxGeometry>
                </mxCell>
                <mxCell id="222" style="edgeStyle=none;sketch=0;html=1;entryX=0;entryY=0.5;entryDx=0;entryDy=0;endArrow=none;endFill=0;exitX=1;exitY=0.5;exitDx=0;exitDy=0;" edge="1" parent="1" source="106" target="220">
                    <mxGeometry relative="1" as="geometry">
                        <Array as="points">
                            <mxPoint x="-150" y="587"/>
                            <mxPoint x="-150" y="700"/>
                        </Array>
                    </mxGeometry>
                </mxCell>
                <mxCell id="247" value="xDeviceStateMutex" style="edgeLabel;html=1;align=center;verticalAlign=middle;resizable=0;points=[];" vertex="1" connectable="0" parent="222">
                    <mxGeometry x="-0.7412" relative="1" as="geometry">
                        <mxPoint x="17" as="offset"/>
                    </mxGeometry>
                </mxCell>
                <mxCell id="244" style="edgeStyle=none;sketch=0;html=1;entryX=1;entryY=0.5;entryDx=0;entryDy=0;endArrow=open;endFill=0;exitX=0;exitY=0.5;exitDx=0;exitDy=0;" edge="1" parent="1" source="106" target="240">
                    <mxGeometry relative="1" as="geometry">
                        <Array as="points">
                            <mxPoint x="-495" y="587"/>
                            <mxPoint x="-495" y="537"/>
                        </Array>
                    </mxGeometry>
                </mxCell>
                <mxCell id="106" value="«task»&lt;br&gt;&lt;b&gt;PollButtAndSW&lt;/b&gt;" style="html=1;rounded=0;fillColor=none;" vertex="1" parent="1">
                    <mxGeometry x="-385" y="562" width="110" height="50" as="geometry"/>
                </mxCell>
                <mxCell id="245" style="edgeStyle=none;sketch=0;html=1;endArrow=open;endFill=0;entryX=1;entryY=0.5;entryDx=0;entryDy=0;exitX=0;exitY=0.5;exitDx=0;exitDy=0;" edge="1" parent="1" source="107" target="240">
                    <mxGeometry relative="1" as="geometry">
                        <mxPoint x="-474.99999999999955" y="540" as="targetPoint"/>
                        <Array as="points">
                            <mxPoint x="-495" y="685"/>
                            <mxPoint x="-495" y="537"/>
                        </Array>
                    </mxGeometry>
                </mxCell>
                <mxCell id="107" value="«task»&lt;br&gt;&lt;b&gt;ReadProcessAccl&lt;/b&gt;" style="html=1;rounded=0;fillColor=none;" vertex="1" parent="1">
                    <mxGeometry x="-385" y="660" width="110" height="50" as="geometry"/>
                </mxCell>
                <mxCell id="157" style="edgeStyle=none;sketch=0;html=1;entryX=0;entryY=0.5;entryDx=0;entryDy=0;endArrow=open;endFill=0;exitX=1;exitY=0.5;exitDx=0;exitDy=0;" edge="1" parent="1" source="81" target="256">
                    <mxGeometry relative="1" as="geometry">
                        <Array as="points">
                            <mxPoint x="-840" y="597"/>
                            <mxPoint x="-840" y="785"/>
                        </Array>
                    </mxGeometry>
                </mxCell>
                <mxCell id="169" value="AcclManager" style="swimlane;fontStyle=3;align=center;verticalAlign=top;childLayout=stackLayout;horizontal=1;startSize=26;horizontalStack=0;resizeParent=1;resizeParentMax=0;resizeLast=0;collapsible=1;marginBottom=0;" vertex="1" parent="1">
                    <mxGeometry x="-90.00000000000006" y="764" width="195" height="188" as="geometry"/>
                </mxCell>
                <mxCell id="170" value="- acclBuffer: circ_buf_vec_t*" style="text;strokeColor=none;fillColor=none;align=left;verticalAlign=top;spacingLeft=4;spacingRight=4;overflow=hidden;rotatable=0;points=[[0,0.5],[1,0.5]];portConstraint=eastwest;" vertex="1" parent="169">
                    <mxGeometry y="26" width="195" height="24" as="geometry"/>
                </mxCell>
                <mxCell id="176" value="" style="line;strokeWidth=1;fillColor=none;align=left;verticalAlign=middle;spacingTop=-1;spacingLeft=3;spacingRight=3;rotatable=0;labelPosition=right;points=[];portConstraint=eastwest;strokeColor=inherit;" vertex="1" parent="169">
                    <mxGeometry y="50" width="195" height="8" as="geometry"/>
                </mxCell>
                <mxCell id="177" value="- initAcclChip(): void" style="text;strokeColor=none;fillColor=none;align=left;verticalAlign=top;spacingLeft=4;spacingRight=4;overflow=hidden;rotatable=0;points=[[0,0.5],[1,0.5]];portConstraint=eastwest;" vertex="1" parent="169">
                    <mxGeometry y="58" width="195" height="26" as="geometry"/>
                </mxCell>
                <mxCell id="178" value="+ acclInit(): void" style="text;strokeColor=none;fillColor=none;align=left;verticalAlign=top;spacingLeft=4;spacingRight=4;overflow=hidden;rotatable=0;points=[[0,0.5],[1,0.5]];portConstraint=eastwest;rounded=0;" vertex="1" parent="169">
                    <mxGeometry y="84" width="195" height="26" as="geometry"/>
                </mxCell>
                <mxCell id="179" value="+ acclProcess(): void" style="text;strokeColor=none;fillColor=none;align=left;verticalAlign=top;spacingLeft=4;spacingRight=4;overflow=hidden;rotatable=0;points=[[0,0.5],[1,0.5]];portConstraint=eastwest;rounded=0;" vertex="1" parent="169">
                    <mxGeometry y="110" width="195" height="26" as="geometry"/>
                </mxCell>
                <mxCell id="180" value="- getAcclData(void): vector3_t" style="text;strokeColor=none;fillColor=none;align=left;verticalAlign=top;spacingLeft=4;spacingRight=4;overflow=hidden;rotatable=0;points=[[0,0.5],[1,0.5]];portConstraint=eastwest;rounded=0;" vertex="1" parent="169">
                    <mxGeometry y="136" width="195" height="26" as="geometry"/>
                </mxCell>
                <mxCell id="181" value="- acclMean(): uint16_t" style="text;strokeColor=none;fillColor=none;align=left;verticalAlign=top;spacingLeft=4;spacingRight=4;overflow=hidden;rotatable=0;points=[[0,0.5],[1,0.5]];portConstraint=eastwest;rounded=0;" vertex="1" parent="169">
                    <mxGeometry y="162" width="195" height="26" as="geometry"/>
                </mxCell>
                <mxCell id="187" style="edgeStyle=none;sketch=0;html=1;entryX=1;entryY=0.5;entryDx=0;entryDy=0;endArrow=none;endFill=0;exitX=0;exitY=0.5;exitDx=0;exitDy=0;" edge="1" parent="1" source="179" target="107">
                    <mxGeometry relative="1" as="geometry">
                        <Array as="points">
                            <mxPoint x="-200" y="887"/>
                            <mxPoint x="-200" y="685"/>
                        </Array>
                    </mxGeometry>
                </mxCell>
                <mxCell id="189" value="accl_q" style="edgeLabel;html=1;align=center;verticalAlign=middle;resizable=0;points=[];" vertex="1" connectable="0" parent="187">
                    <mxGeometry x="0.1137" relative="1" as="geometry">
                        <mxPoint x="-40" y="-96" as="offset"/>
                    </mxGeometry>
                </mxCell>
                <mxCell id="196" value="DisplayManager" style="swimlane;fontStyle=3;align=center;verticalAlign=top;childLayout=stackLayout;horizontal=1;startSize=26;horizontalStack=0;resizeParent=1;resizeParentMax=0;resizeLast=0;collapsible=1;marginBottom=0;" vertex="1" parent="1">
                    <mxGeometry x="-90.00000000000006" y="100" width="400" height="164" as="geometry"/>
                </mxCell>
                <mxCell id="198" value="" style="line;strokeWidth=1;fillColor=none;align=left;verticalAlign=middle;spacingTop=-1;spacingLeft=3;spacingRight=3;rotatable=0;labelPosition=right;points=[];portConstraint=eastwest;strokeColor=inherit;" vertex="1" parent="196">
                    <mxGeometry y="26" width="400" height="8" as="geometry"/>
                </mxCell>
                <mxCell id="199" value="+ displayInit(): void" style="text;strokeColor=none;fillColor=none;align=left;verticalAlign=top;spacingLeft=4;spacingRight=4;overflow=hidden;rotatable=0;points=[[0,0.5],[1,0.5]];portConstraint=eastwest;" vertex="1" parent="196">
                    <mxGeometry y="34" width="400" height="26" as="geometry"/>
                </mxCell>
                <mxCell id="204" value="+ displayUpdate(deviceStateInfo_t, uint16_t, bool): void" style="text;strokeColor=none;fillColor=none;align=left;verticalAlign=top;spacingLeft=4;spacingRight=4;overflow=hidden;rotatable=0;points=[[0,0.5],[1,0.5]];portConstraint=eastwest;rounded=0;" vertex="1" parent="196">
                    <mxGeometry y="60" width="400" height="26" as="geometry"/>
                </mxCell>
                <mxCell id="205" value="- displayLine(char*, uint8_t, textAlignment_t): void" style="text;strokeColor=none;fillColor=none;align=left;verticalAlign=top;spacingLeft=4;spacingRight=4;overflow=hidden;rotatable=0;points=[[0,0.5],[1,0.5]];portConstraint=eastwest;rounded=0;" vertex="1" parent="196">
                    <mxGeometry y="86" width="400" height="26" as="geometry"/>
                </mxCell>
                <mxCell id="206" value="- displayValue(char*, char*, int32_t, uint8_t, textAlignment_t, bool): void" style="text;strokeColor=none;fillColor=none;align=left;verticalAlign=top;spacingLeft=4;spacingRight=4;overflow=hidden;rotatable=0;points=[[0,0.5],[1,0.5]];portConstraint=eastwest;rounded=0;" vertex="1" parent="196">
                    <mxGeometry y="112" width="400" height="26" as="geometry"/>
                </mxCell>
                <mxCell id="207" value="- displayTime(char*, uint16_t, uint8_t, textAlignment_t): void" style="text;strokeColor=none;fillColor=none;align=left;verticalAlign=top;spacingLeft=4;spacingRight=4;overflow=hidden;rotatable=0;points=[[0,0.5],[1,0.5]];portConstraint=eastwest;rounded=0;" vertex="1" parent="196">
                    <mxGeometry y="138" width="400" height="26" as="geometry"/>
                </mxCell>
                <mxCell id="210" value="ButtonManager" style="swimlane;fontStyle=3;align=center;verticalAlign=top;childLayout=stackLayout;horizontal=1;startSize=26;horizontalStack=0;resizeParent=1;resizeParentMax=0;resizeLast=0;collapsible=1;marginBottom=0;" vertex="1" parent="1">
                    <mxGeometry x="-90.00000000000006" y="554" width="310" height="160" as="geometry"/>
                </mxCell>
                <mxCell id="211" value="- longPressCount: uint16_t" style="text;strokeColor=none;fillColor=none;align=left;verticalAlign=top;spacingLeft=4;spacingRight=4;overflow=hidden;rotatable=0;points=[[0,0.5],[1,0.5]];portConstraint=eastwest;" vertex="1" parent="210">
                    <mxGeometry y="26" width="310" height="24" as="geometry"/>
                </mxCell>
                <mxCell id="218" value="- allowLongPress: bool" style="text;strokeColor=none;fillColor=none;align=left;verticalAlign=top;spacingLeft=4;spacingRight=4;overflow=hidden;rotatable=0;points=[[0,0.5],[1,0.5]];portConstraint=eastwest;" vertex="1" parent="210">
                    <mxGeometry y="50" width="310" height="24" as="geometry"/>
                </mxCell>
                <mxCell id="212" value="" style="line;strokeWidth=1;fillColor=none;align=left;verticalAlign=middle;spacingTop=-1;spacingLeft=3;spacingRight=3;rotatable=0;labelPosition=right;points=[];portConstraint=eastwest;strokeColor=inherit;" vertex="1" parent="210">
                    <mxGeometry y="74" width="310" height="8" as="geometry"/>
                </mxCell>
                <mxCell id="217" value="+ btnInit(): void" style="text;strokeColor=none;fillColor=none;align=left;verticalAlign=top;spacingLeft=4;spacingRight=4;overflow=hidden;rotatable=0;points=[[0,0.5],[1,0.5]];portConstraint=eastwest;rounded=0;" vertex="1" parent="210">
                    <mxGeometry y="82" width="310" height="26" as="geometry"/>
                </mxCell>
                <mxCell id="219" value="+ btnUpdateState(deviceStateInfo_t*, butNames): void" style="text;strokeColor=none;fillColor=none;align=left;verticalAlign=top;spacingLeft=4;spacingRight=4;overflow=hidden;rotatable=0;points=[[0,0.5],[1,0.5]];portConstraint=eastwest;rounded=0;" vertex="1" parent="210">
                    <mxGeometry y="108" width="310" height="26" as="geometry"/>
                </mxCell>
                <mxCell id="220" value="+ swUpdateState(deviceStateInfo_t*, SWNames): void" style="text;strokeColor=none;fillColor=none;align=left;verticalAlign=top;spacingLeft=4;spacingRight=4;overflow=hidden;rotatable=0;points=[[0,0.5],[1,0.5]];portConstraint=eastwest;rounded=0;" vertex="1" parent="210">
                    <mxGeometry y="134" width="310" height="26" as="geometry"/>
                </mxCell>
                <mxCell id="225" value="ADCRead" style="swimlane;fontStyle=3;align=center;verticalAlign=top;childLayout=stackLayout;horizontal=1;startSize=26;horizontalStack=0;resizeParent=1;resizeParentMax=0;resizeLast=0;collapsible=1;marginBottom=0;" vertex="1" parent="1">
                    <mxGeometry x="-90.00000000000006" y="312" width="195" height="188" as="geometry"/>
                </mxCell>
                <mxCell id="226" value="- ADC_inbuffer: circBuf_t*" style="text;strokeColor=none;fillColor=none;align=left;verticalAlign=top;spacingLeft=4;spacingRight=4;overflow=hidden;rotatable=0;points=[[0,0.5],[1,0.5]];portConstraint=eastwest;" vertex="1" parent="225">
                    <mxGeometry y="26" width="195" height="24" as="geometry"/>
                </mxCell>
                <mxCell id="227" value="" style="line;strokeWidth=1;fillColor=none;align=left;verticalAlign=middle;spacingTop=-1;spacingLeft=3;spacingRight=3;rotatable=0;labelPosition=right;points=[];portConstraint=eastwest;strokeColor=inherit;" vertex="1" parent="225">
                    <mxGeometry y="50" width="195" height="8" as="geometry"/>
                </mxCell>
                <mxCell id="232" value="- callback(uint32_t): void" style="text;strokeColor=none;fillColor=none;align=left;verticalAlign=top;spacingLeft=4;spacingRight=4;overflow=hidden;rotatable=0;points=[[0,0.5],[1,0.5]];portConstraint=eastwest;rounded=0;" vertex="1" parent="225">
                    <mxGeometry y="58" width="195" height="26" as="geometry"/>
                </mxCell>
                <mxCell id="233" value="+ pollADC(): void" style="text;strokeColor=none;fillColor=none;align=left;verticalAlign=top;spacingLeft=4;spacingRight=4;overflow=hidden;rotatable=0;points=[[0,0.5],[1,0.5]];portConstraint=eastwest;rounded=0;" vertex="1" parent="225">
                    <mxGeometry y="84" width="195" height="26" as="geometry"/>
                </mxCell>
                <mxCell id="234" value="- ADCIntHandler(): void" style="text;strokeColor=none;fillColor=none;align=left;verticalAlign=top;spacingLeft=4;spacingRight=4;overflow=hidden;rotatable=0;points=[[0,0.5],[1,0.5]];portConstraint=eastwest;rounded=0;" vertex="1" parent="225">
                    <mxGeometry y="110" width="195" height="26" as="geometry"/>
                </mxCell>
                <mxCell id="235" value="+ initADC(): void" style="text;strokeColor=none;fillColor=none;align=left;verticalAlign=top;spacingLeft=4;spacingRight=4;overflow=hidden;rotatable=0;points=[[0,0.5],[1,0.5]];portConstraint=eastwest;rounded=0;" vertex="1" parent="225">
                    <mxGeometry y="136" width="195" height="26" as="geometry"/>
                </mxCell>
                <mxCell id="236" value="+ readADC(): uint32_t" style="text;strokeColor=none;fillColor=none;align=left;verticalAlign=top;spacingLeft=4;spacingRight=4;overflow=hidden;rotatable=0;points=[[0,0.5],[1,0.5]];portConstraint=eastwest;rounded=0;" vertex="1" parent="225">
                    <mxGeometry y="162" width="195" height="26" as="geometry"/>
                </mxCell>
                <mxCell id="249" style="edgeStyle=none;sketch=0;html=1;entryX=1;entryY=0.5;entryDx=0;entryDy=0;endArrow=open;endFill=0;exitX=0;exitY=0.5;exitDx=0;exitDy=0;" edge="1" parent="1" source="240" target="92">
                    <mxGeometry relative="1" as="geometry"/>
                </mxCell>
                <mxCell id="240" value="«interface»&lt;br&gt;xSemaphoreTake(xDeviceStateMutex)" style="html=1;rounded=0;fillColor=none;" vertex="1" parent="1">
                    <mxGeometry x="-790" y="512" width="240" height="50" as="geometry"/>
                </mxCell>
                <mxCell id="250" value="«interface»&lt;br&gt;xSemaphoreTake(xResetSemaphore)" style="html=1;rounded=0;fillColor=none;" vertex="1" parent="1">
                    <mxGeometry x="-790" y="863" width="240" height="50" as="geometry"/>
                </mxCell>
                <mxCell id="254" value="«interface»&lt;br&gt;xSemaphoreTake(xPromptSemaphore)" style="html=1;rounded=0;fillColor=none;" vertex="1" parent="1">
                    <mxGeometry x="-790" y="609" width="240" height="50" as="geometry"/>
                </mxCell>
                <mxCell id="257" style="edgeStyle=none;sketch=0;html=1;entryX=0;entryY=0.5;entryDx=0;entryDy=0;endArrow=open;endFill=0;" edge="1" parent="1" source="256" target="100">
                    <mxGeometry relative="1" as="geometry"/>
                </mxCell>
                <mxCell id="256" value="«interface»&lt;br&gt;xSemaphoreGive(xPromptSemaphore)" style="html=1;rounded=0;fillColor=none;" vertex="1" parent="1">
                    <mxGeometry x="-790" y="760" width="240" height="50" as="geometry"/>
                </mxCell>
                <mxCell id="260" style="edgeStyle=none;sketch=0;html=1;entryX=0.5;entryY=1;entryDx=0;entryDy=0;endArrow=open;endFill=0;" edge="1" parent="1" source="258" target="99">
                    <mxGeometry relative="1" as="geometry"/>
                </mxCell>
                <mxCell id="258" value="«interface»&lt;br&gt;xSemaphoreGive(xResetSemaphore)" style="html=1;rounded=0;fillColor=none;" vertex="1" parent="1">
                    <mxGeometry x="-450" y="980" width="240" height="50" as="geometry"/>
                </mxCell>
            </root>
        </mxGraphModel>
    </diagram>
</mxfile>